<mxfile host="65bd71144e">
    <diagram id="X5SzS_FeevJv-DkIXQUU" name="第 1 页">
        <mxGraphModel dx="103" dy="659" grid="1" gridSize="10" guides="1" tooltips="1" connect="1" arrows="1" fold="1" page="1" pageScale="1" pageWidth="827" pageHeight="1169" math="0" shadow="0">
            <root>
                <mxCell id="0"/>
                <mxCell id="1" parent="0"/>
                <mxCell id="130" value="问诊开始" style="strokeWidth=2;html=1;shape=mxgraph.flowchart.terminator;whiteSpace=wrap;fontSize=20;" parent="1" vertex="1">
                    <mxGeometry x="1223" y="120" width="100" height="40" as="geometry"/>
                </mxCell>
                <mxCell id="131" value="" style="endArrow=classic;html=1;fontSize=20;exitX=0.5;exitY=1;exitDx=0;exitDy=0;exitPerimeter=0;" parent="1" edge="1">
                    <mxGeometry width="50" height="50" relative="1" as="geometry">
                        <mxPoint x="1272.5" y="160" as="sourcePoint"/>
                        <mxPoint x="1272.5" y="200" as="targetPoint"/>
                    </mxGeometry>
                </mxCell>
                <mxCell id="132" value="发起聊天" style="rounded=1;whiteSpace=wrap;html=1;fontSize=20;" parent="1" vertex="1">
                    <mxGeometry x="1223" y="200" width="100" height="40" as="geometry"/>
                </mxCell>
                <mxCell id="133" value="" style="endArrow=classic;html=1;fontSize=20;exitX=0.5;exitY=1;exitDx=0;exitDy=0;" parent="1" edge="1">
                    <mxGeometry width="50" height="50" relative="1" as="geometry">
                        <mxPoint x="1272.5" y="241.25" as="sourcePoint"/>
                        <mxPoint x="1272.5" y="281.25" as="targetPoint"/>
                    </mxGeometry>
                </mxCell>
                <mxCell id="134" value="" style="strokeWidth=2;html=1;shape=mxgraph.flowchart.decision;whiteSpace=wrap;fontSize=20;" parent="1" vertex="1">
                    <mxGeometry x="1218" y="281.25" width="110" height="60" as="geometry"/>
                </mxCell>
                <mxCell id="135" value="" style="endArrow=classic;html=1;fontSize=20;" parent="1" edge="1">
                    <mxGeometry width="50" height="50" relative="1" as="geometry">
                        <mxPoint x="1213" y="311.25" as="sourcePoint"/>
                        <mxPoint x="1173" y="361.25" as="targetPoint"/>
                        <Array as="points">
                            <mxPoint x="1173" y="311.25"/>
                        </Array>
                    </mxGeometry>
                </mxCell>
                <mxCell id="136" value="未接" style="text;html=1;strokeColor=none;fillColor=none;align=center;verticalAlign=middle;whiteSpace=wrap;rounded=0;fontSize=20;" parent="1" vertex="1">
                    <mxGeometry x="1143" y="286.25" width="60" height="30" as="geometry"/>
                </mxCell>
                <mxCell id="137" value="等待1分钟" style="rounded=1;whiteSpace=wrap;html=1;fontSize=20;" parent="1" vertex="1">
                    <mxGeometry x="1120" y="361.25" width="100" height="40" as="geometry"/>
                </mxCell>
                <mxCell id="138" value="" style="endArrow=classic;html=1;fontSize=20;" parent="1" edge="1">
                    <mxGeometry width="50" height="50" relative="1" as="geometry">
                        <mxPoint x="1330" y="309.37" as="sourcePoint"/>
                        <mxPoint x="1380" y="359.37" as="targetPoint"/>
                        <Array as="points">
                            <mxPoint x="1380" y="309.37"/>
                        </Array>
                    </mxGeometry>
                </mxCell>
                <mxCell id="139" value="接通" style="text;html=1;strokeColor=none;fillColor=none;align=center;verticalAlign=middle;whiteSpace=wrap;rounded=0;fontSize=20;" parent="1" vertex="1">
                    <mxGeometry x="1340" y="284.37" width="60" height="30" as="geometry"/>
                </mxCell>
                <mxCell id="140" value="开始诊断" style="rounded=1;whiteSpace=wrap;html=1;fontSize=20;" parent="1" vertex="1">
                    <mxGeometry x="1328" y="359.37" width="100" height="40" as="geometry"/>
                </mxCell>
                <mxCell id="141" value="" style="endArrow=classic;html=1;fontSize=20;exitX=0.5;exitY=1;exitDx=0;exitDy=0;" parent="1" edge="1">
                    <mxGeometry width="50" height="50" relative="1" as="geometry">
                        <mxPoint x="1172.5" y="401.25" as="sourcePoint"/>
                        <mxPoint x="1172.5" y="441.25" as="targetPoint"/>
                    </mxGeometry>
                </mxCell>
                <mxCell id="142" value="" style="strokeWidth=2;html=1;shape=mxgraph.flowchart.decision;whiteSpace=wrap;fontSize=20;" parent="1" vertex="1">
                    <mxGeometry x="1118" y="441.25" width="110" height="60" as="geometry"/>
                </mxCell>
                <mxCell id="143" value="" style="endArrow=classic;html=1;fontSize=20;" parent="1" edge="1">
                    <mxGeometry width="50" height="50" relative="1" as="geometry">
                        <mxPoint x="1118" y="469.37" as="sourcePoint"/>
                        <mxPoint x="1078" y="519.37" as="targetPoint"/>
                        <Array as="points">
                            <mxPoint x="1078" y="469.37"/>
                        </Array>
                    </mxGeometry>
                </mxCell>
                <mxCell id="144" value="仍然未接" style="text;html=1;strokeColor=none;fillColor=none;align=center;verticalAlign=middle;whiteSpace=wrap;rounded=0;fontSize=20;" parent="1" vertex="1">
                    <mxGeometry x="1030" y="441.25" width="100" height="30" as="geometry"/>
                </mxCell>
                <mxCell id="145" value="叫下一个" style="rounded=1;whiteSpace=wrap;html=1;fontSize=20;" parent="1" vertex="1">
                    <mxGeometry x="1030" y="519.37" width="100" height="40" as="geometry"/>
                </mxCell>
                <mxCell id="146" value="" style="endArrow=classic;html=1;fontSize=20;exitX=0.5;exitY=1;exitDx=0;exitDy=0;entryX=0;entryY=0.5;entryDx=0;entryDy=0;" parent="1" source="145" target="132" edge="1">
                    <mxGeometry width="50" height="50" relative="1" as="geometry">
                        <mxPoint x="1270" y="379.37" as="sourcePoint"/>
                        <mxPoint x="1320" y="329.37" as="targetPoint"/>
                        <Array as="points">
                            <mxPoint x="1080" y="599.37"/>
                            <mxPoint x="1020" y="599.37"/>
                            <mxPoint x="1020" y="219.37"/>
                        </Array>
                    </mxGeometry>
                </mxCell>
                <mxCell id="147" value="" style="endArrow=classic;html=1;fontSize=20;entryX=0;entryY=0.5;entryDx=0;entryDy=0;" parent="1" target="140" edge="1">
                    <mxGeometry width="50" height="50" relative="1" as="geometry">
                        <mxPoint x="1228" y="469.37" as="sourcePoint"/>
                        <mxPoint x="1278" y="519.37" as="targetPoint"/>
                        <Array as="points">
                            <mxPoint x="1278" y="469.37"/>
                            <mxPoint x="1278" y="379.37"/>
                        </Array>
                    </mxGeometry>
                </mxCell>
                <mxCell id="148" value="接通" style="text;html=1;strokeColor=none;fillColor=none;align=center;verticalAlign=middle;whiteSpace=wrap;rounded=0;fontSize=20;" parent="1" vertex="1">
                    <mxGeometry x="1243" y="469.37" width="60" height="30" as="geometry"/>
                </mxCell>
                <mxCell id="149" value="对话" style="rounded=1;whiteSpace=wrap;html=1;fontSize=20;" parent="1" vertex="1">
                    <mxGeometry x="1340" y="439.37" width="82" height="40" as="geometry"/>
                </mxCell>
                <mxCell id="150" value="检测" style="rounded=1;whiteSpace=wrap;html=1;fontSize=20;" parent="1" vertex="1">
                    <mxGeometry x="1341" y="519.37" width="82" height="40" as="geometry"/>
                </mxCell>
                <mxCell id="151" value="开方" style="rounded=1;whiteSpace=wrap;html=1;fontSize=20;" parent="1" vertex="1">
                    <mxGeometry x="1341" y="599.37" width="82" height="40" as="geometry"/>
                </mxCell>
                <mxCell id="152" value="" style="endArrow=classic;html=1;fontSize=20;exitX=0.5;exitY=1;exitDx=0;exitDy=0;exitPerimeter=0;" parent="1" edge="1">
                    <mxGeometry width="50" height="50" relative="1" as="geometry">
                        <mxPoint x="1380.5" y="399.37" as="sourcePoint"/>
                        <mxPoint x="1380.5" y="439.37" as="targetPoint"/>
                    </mxGeometry>
                </mxCell>
                <mxCell id="153" value="" style="endArrow=classic;html=1;fontSize=20;exitX=0.5;exitY=1;exitDx=0;exitDy=0;exitPerimeter=0;" parent="1" edge="1">
                    <mxGeometry width="50" height="50" relative="1" as="geometry">
                        <mxPoint x="1381.5" y="479.37" as="sourcePoint"/>
                        <mxPoint x="1381.5" y="519.37" as="targetPoint"/>
                    </mxGeometry>
                </mxCell>
                <mxCell id="154" value="" style="endArrow=classic;html=1;fontSize=20;exitX=0.5;exitY=1;exitDx=0;exitDy=0;exitPerimeter=0;" parent="1" edge="1">
                    <mxGeometry width="50" height="50" relative="1" as="geometry">
                        <mxPoint x="1381.5" y="559.37" as="sourcePoint"/>
                        <mxPoint x="1381.5" y="599.37" as="targetPoint"/>
                    </mxGeometry>
                </mxCell>
                <mxCell id="155" value="" style="endArrow=classic;html=1;fontSize=20;entryX=1;entryY=0.5;entryDx=0;entryDy=0;" parent="1" target="156" edge="1">
                    <mxGeometry width="50" height="50" relative="1" as="geometry">
                        <mxPoint x="1340" y="619.37" as="sourcePoint"/>
                        <mxPoint x="1270" y="619.37" as="targetPoint"/>
                    </mxGeometry>
                </mxCell>
                <mxCell id="156" value="填写病例" style="rounded=1;whiteSpace=wrap;html=1;fontSize=20;" parent="1" vertex="1">
                    <mxGeometry x="1203" y="599.37" width="100" height="40" as="geometry"/>
                </mxCell>
                <mxCell id="157" value="" style="endArrow=classic;html=1;fontSize=20;exitX=0.5;exitY=1;exitDx=0;exitDy=0;exitPerimeter=0;" parent="1" edge="1">
                    <mxGeometry width="50" height="50" relative="1" as="geometry">
                        <mxPoint x="1252.5" y="639.37" as="sourcePoint"/>
                        <mxPoint x="1252.5" y="679.37" as="targetPoint"/>
                    </mxGeometry>
                </mxCell>
                <mxCell id="158" value="" style="endArrow=classic;html=1;fontSize=20;exitX=0;exitY=0.5;exitDx=0;exitDy=0;entryX=1;entryY=0.5;entryDx=0;entryDy=0;" parent="1" source="159" target="145" edge="1">
                    <mxGeometry width="50" height="50" relative="1" as="geometry">
                        <mxPoint x="1350" y="669.37" as="sourcePoint"/>
                        <mxPoint x="1350" y="709.37" as="targetPoint"/>
                        <Array as="points">
                            <mxPoint x="1170" y="699.37"/>
                            <mxPoint x="1170" y="539.37"/>
                        </Array>
                    </mxGeometry>
                </mxCell>
                <mxCell id="159" value="结束聊天" style="rounded=1;whiteSpace=wrap;html=1;fontSize=20;" parent="1" vertex="1">
                    <mxGeometry x="1203" y="679.37" width="100" height="40" as="geometry"/>
                </mxCell>
                <mxCell id="160" value="结束问诊" style="rounded=1;whiteSpace=wrap;html=1;fontSize=20;" parent="1" vertex="1">
                    <mxGeometry x="1203" y="759.37" width="100" height="40" as="geometry"/>
                </mxCell>
                <mxCell id="161" value="" style="endArrow=none;dashed=1;html=1;dashPattern=1 3;strokeWidth=2;fontSize=20;exitX=0.5;exitY=1;exitDx=0;exitDy=0;entryX=0.5;entryY=0;entryDx=0;entryDy=0;" parent="1" source="159" target="160" edge="1">
                    <mxGeometry width="50" height="50" relative="1" as="geometry">
                        <mxPoint x="1240" y="699.37" as="sourcePoint"/>
                        <mxPoint x="1290" y="649.37" as="targetPoint"/>
                    </mxGeometry>
                </mxCell>
                <mxCell id="162" value="&lt;font style=&quot;font-size: 20px;&quot;&gt;医生&lt;/font&gt;" style="shape=umlActor;verticalLabelPosition=bottom;verticalAlign=top;html=1;outlineConnect=0;" parent="1" vertex="1">
                    <mxGeometry x="960" y="80" width="30" height="60" as="geometry"/>
                </mxCell>
            </root>
        </mxGraphModel>
    </diagram>
</mxfile>